PathFileType	4	(X/Y/Z)	1H_nor_fast_left.trc
DataRate	CameraRate	NumFrames	NumMarkers	Units	OrigDataRate	OrigDataStartFrame	OrigNumFrames
250.00	250.00	15	18	mm	250.00	3812	7622
Frame#	Time	c7	r_should	r_elb_m	clavicle	r_upa	r_wri_m	l_upa	l_elb_l	l_low	l_wri_l	l_met	l_elb_m	r_elb_l	l_should	r_low	r_wri_l	r_met	l_wri_m
	X1	Y1	Z1	X2	Y2	Z2	X3	Y3	Z3	X4	Y4	Z4	X5	Y5	Z5	X6	Y6	Z6	X7	Y7	Z7	X8	Y8	Z8	X9	Y9	Z9	X10	Y10	Z10	X11	Y11	Z11	X12	Y12	Z12	X13	Y13	Z13	X14	Y14	Z14	X15	Y15	Z15	X16	Y16	Z16	X17	Y17	Z17	X18	Y18	Z18
3812	15.24400	1069.71997	1427.54358	137.58012	1130.33191	1352.03967	299.45529	1085.33948	1016.93726	303.24231	1184.09778	1293.03784	124.43082	1153.79382	1135.45654	338.68808	1139.20813	784.96411	376.02029	1154.56677	1220.04468	-130.42566	1188.70447	1159.89465	-150.81635	1235.76868	1168.96912	-63.14032	1251.16345	1211.71716	35.27442	1316.88953	1220.39917	87.06055	1117.88391	1104.45715	-97.39816	1164.07629	1044.49670	350.85486	1091.90393	1396.05286	-24.78842	1182.10620	908.52911	339.86346	1190.83081	782.54333	320.25400	1218.88135	722.52539	361.32593	1253.13574	1139.78528	55.67702
3813	15.24800	1069.65894	1427.52344	137.59167	1130.31128	1352.03333	299.46185	1085.29456	1016.93414	303.28671	1183.96558	1292.91101	123.59953	1153.77441	1135.44446	338.70984	1139.21545	784.95410	376.02277	1154.12915	1219.73181	-130.48386	1188.17725	1159.40491	-150.83420	1235.40430	1168.12061	-63.20485	1251.20728	1210.54700	35.34332	1317.05481	1218.80688	87.01746	1117.29480	1104.16370	-97.38515	1164.05554	1044.49341	350.88547	1091.88745	1395.91479	-24.86740	1182.08813	908.52704	339.87946	1190.83643	782.54608	320.26447	1218.90002	722.53131	361.32458	1252.89050	1138.56299	55.60522
3814	15.25200	1069.60022	1427.50488	137.60318	1130.28979	1352.02258	299.47400	1086.16663	1016.31799	303.18500	1183.32434	1293.45288	122.82388	1153.75623	1135.43445	338.73843	1139.22278	784.94611	376.03503	1153.68921	1219.41638	-130.53932	1187.63428	1158.91931	-150.86504	1235.01160	1167.25977	-63.26932	1251.25269	1209.31921	35.42659	1317.23108	1217.14355	86.97185	1116.69080	1103.85461	-97.36382	1164.03308	1044.48596	350.91818	1091.87915	1395.77991	-24.94651	1182.06946	908.52606	339.88773	1190.83923	782.54175	320.28394	1218.91724	722.53375	361.32727	1252.60156	1137.24890	55.51772
3815	15.25600	1069.53748	1427.49426	137.61743	1130.26746	1352.00793	299.47983	1088.19531	1014.93787	302.90100	1183.14551	1293.47754	122.64989	1153.73450	1135.41223	338.76318	1139.22974	784.93250	376.04367	1153.25208	1219.10278	-130.58853	1187.06262	1158.43896	-150.90656	1234.60059	1166.35901	-63.35014	1251.30884	1208.02209	35.50980	1317.42297	1215.40430	86.93279	1115.98145	1103.57446	-97.32218	1164.01428	1044.46753	350.94824	1091.87451	1395.64392	-25.01642	1182.06006	908.51245	339.90158	1190.83911	782.55176	320.28897	1218.92932	722.53503	361.33182	1252.36670	1135.83264	55.41767
3816	15.26000	1069.46899	1427.48999	137.64380	1130.23975	1351.99109	299.49594	1088.67798	1014.57837	302.86108	1183.05725	1293.43079	122.62361	1153.70459	1135.39771	338.79318	1139.23206	784.91888	376.05209	1152.81250	1218.79431	-130.64363	1186.45569	1157.94495	-150.93774	1234.17859	1165.38806	-63.41070	1251.36572	1206.69104	35.61462	1317.62708	1213.58130	86.87589	1115.07178	1103.40710	-97.33595	1163.99390	1044.45581	350.98065	1091.87097	1395.51746	-25.08043	1182.04785	908.50671	339.92343	1190.84131	782.55920	320.27936	1218.94128	722.53339	361.33426	1252.08423	1134.36438	55.28262
3817	15.26400	1069.39978	1427.48730	137.68245	1130.20593	1351.97522	299.51062	1088.76489	1014.48438	302.88403	1182.99097	1293.40674	122.64203	1153.67505	1135.38477	338.81595	1139.24011	784.90826	376.06030	1152.36829	1218.48816	-130.68930	1185.82190	1157.43408	-150.97646	1233.73157	1164.37244	-63.43015	1251.41907	1205.28796	35.69897	1317.82605	1211.68372	86.80873	1113.96924	1103.48389	-97.49467	1163.96924	1044.44397	351.00519	1091.87427	1395.39978	-25.13972	1182.04077	908.50079	339.93875	1190.84351	782.55377	320.29031	1218.95032	722.53870	361.33542	1251.85144	1132.82886	55.11729
3818	15.26800	1069.33521	1427.48145	137.72336	1130.16565	1351.96228	299.53653	1088.76721	1014.44745	302.92267	1182.93396	1293.39453	122.66266	1153.65149	1135.37268	338.83795	1139.24768	784.89008	376.06335	1151.91846	1218.17822	-130.73688	1185.21204	1156.91138	-151.01355	1233.28259	1163.29761	-63.44988	1251.47644	1203.85352	35.82757	1318.04016	1209.72437	86.73482	1113.10059	1103.56458	-97.77581	1163.94556	1044.43457	351.02780	1091.89075	1395.28113	-25.19416	1182.03784	908.50970	339.95776	1190.85168	782.56348	320.30466	1218.95874	722.54309	361.34048	1251.69360	1131.25708	54.92062
3819	15.27200	1069.27478	1427.47290	137.76038	1130.12048	1351.94629	299.56674	1088.74670	1014.42657	302.95441	1182.87329	1293.38330	122.69625	1153.62622	1135.35681	338.86874	1139.24976	784.87189	376.06287	1151.47144	1217.86731	-130.79269	1184.61804	1156.34912	-151.04318	1232.83679	1162.17761	-63.51118	1251.54614	1202.32788	35.92182	1318.26855	1207.68689	86.64591	1112.50146	1103.46436	-98.02532	1163.91809	1044.42407	351.05096	1091.92249	1395.15881	-25.24403	1182.03259	908.51166	339.97598	1190.86096	782.56763	320.31747	1218.96558	722.53491	361.34171	1251.43213	1129.59387	54.70472
3820	15.27600	1069.21741	1427.46191	137.79614	1130.07080	1351.92029	299.60263	1088.72803	1014.39990	302.97745	1182.81323	1293.36230	122.73094	1153.59607	1135.33606	338.89050	1139.25488	784.85754	376.06317	1151.02295	1217.54602	-130.85318	1184.01624	1155.77063	-151.05835	1232.41931	1161.04443	-63.57564	1251.61401	1200.76782	35.97990	1318.49744	1205.55908	86.53818	1111.94104	1103.28540	-98.26233	1163.89819	1044.41028	351.07019	1091.96436	1395.02625	-25.29664	1182.02283	908.48914	339.98755	1190.86414	782.55481	320.31863	1218.97266	722.52032	361.33914	1252.57935	1127.34106	55.06770
3821	15.28000	1069.16113	1427.45020	137.82994	1130.01257	1351.89722	299.63922	1087.82288	1014.95721	303.13235	1182.75256	1293.34131	122.76652	1153.55432	1135.31262	338.89938	1139.25464	784.83972	376.06622	1150.56799	1217.22241	-130.92023	1183.38635	1155.18396	-151.10117	1231.98840	1159.87549	-63.67261	1251.69556	1199.13086	36.02632	1318.74133	1203.35376	86.41582	1111.30286	1103.09607	-98.45181	1163.86731	1044.39600	351.07706	1092.00854	1394.88672	-25.34865	1182.01135	908.45312	340.00214	1190.86438	782.53070	320.31592	1218.97498	722.49609	361.32532	1255.52747	1124.26318	56.07421
3822	15.28400	1069.10144	1427.43994	137.85760	1129.94604	1351.87024	299.66885	1086.26208	1015.90277	303.35175	1182.68347	1293.32324	122.80206	1153.52332	1135.30127	338.91956	1139.23669	784.82062	376.05371	1150.11169	1216.90234	-130.98798	1182.73621	1154.61304	-151.16585	1231.55176	1158.66187	-63.78070	1251.76135	1197.41614	36.10257	1318.98401	1201.08618	86.28382	1110.57544	1102.88330	-98.63422	1163.83545	1044.37659	351.08063	1092.05176	1394.74463	-25.40580	1181.98926	908.42261	340.01105	1190.86145	782.50208	320.30219	1218.96289	722.47205	361.30594	1254.61389	1122.72839	55.48215
3823	15.28800	1069.04004	1427.43237	137.88152	1129.88281	1351.84814	299.70151	1086.86218	1015.37286	303.19318	1182.61182	1293.30798	122.82617	1153.49097	1135.28906	338.93164	1139.22192	784.79486	376.02866	1149.64319	1216.58801	-131.05424	1182.06836	1154.05298	-151.25061	1231.11353	1157.39453	-63.88905	1251.81702	1195.68115	36.15834	1319.21729	1198.76025	86.12511	1109.85059	1102.63635	-98.81535	1163.80481	1044.35950	351.09076	1092.09204	1394.60242	-25.46378	1181.96118	908.40619	340.00116	1190.84106	782.48193	320.29245	1218.94690	722.44440	361.28525	1252.30627	1122.12256	54.14034
3824	15.29200	1068.98083	1427.42590	137.90466	1129.81738	1351.83264	299.74200	1087.18408	1015.10431	303.11426	1182.54248	1293.28320	122.84967	1153.45569	1135.26941	338.94229	1139.20667	784.76465	376.00909	1149.16553	1216.27856	-131.12021	1181.37842	1153.48694	-151.33727	1230.70667	1156.10864	-63.99704	1251.87878	1193.90735	36.20515	1319.45471	1196.35962	85.94860	1109.11365	1102.39343	-98.94600	1163.77991	1044.34412	351.10883	1092.13403	1394.46326	-25.51988	1181.93652	908.37988	339.99271	1190.82422	782.46973	320.28506	1218.93188	722.41693	361.26190	1253.22241	1120.49768	53.93646
3825	15.29600	1068.92749	1427.41821	137.93004	1129.75879	1351.81934	299.78314	1087.66809	1014.78674	303.07239	1182.47864	1293.25488	122.87988	1153.41992	1135.24634	338.95862	1139.19324	784.75226	375.99496	1148.68835	1215.95642	-131.17203	1180.68494	1152.91357	-151.40302	1230.34839	1154.74780	-64.13667	1251.94934	1192.05591	36.28031	1319.70667	1193.89465	85.77110	1108.38159	1102.16235	-99.09294	1163.75159	1044.32776	351.11987	1092.17493	1394.32556	-25.56883	1181.91272	908.34790	339.99554	1190.81519	782.44904	320.26736	1218.91577	722.39209	361.23975	1253.25732	1118.61658	53.59148
3826	15.30000	1068.87988	1427.40833	137.96217	1129.70898	1351.80286	299.82343	1088.34863	1014.38879	303.04150	1182.42236	1293.22998	122.91956	1153.37927	1135.22729	338.97269	1139.17444	784.73376	375.97382	1148.22437	1215.62793	-131.20824	1179.99548	1152.34497	-151.46988	1230.79321	1153.68506	-65.91074	1252.02368	1190.16504	36.33062	1319.97510	1191.35889	85.57523	1107.61499	1101.97571	-99.28671	1163.72253	1044.30762	351.12912	1092.20850	1394.19324	-25.61919	1181.89478	908.33105	339.99927	1190.80286	782.43854	320.25897	1218.89929	722.37189	361.22244	1253.09009	1116.65601	53.16416
